<svg width="131" height="53" viewBox="0 0 131 53" fill="none" xmlns="http://www.w3.org/2000/svg">
<path d="M4.53784 16.3259V35.8075C4.53784 36.6655 4.9888 37.4606 5.72616 37.9003L21.9581 47.5739C22.7269 48.0312 23.684 48.0312 24.4515 47.5739L40.6835 37.9003C41.4208 37.4606 41.8718 36.6667 41.8718 35.8075V16.3259C41.8718 15.4679 41.4208 14.6728 40.6835 14.2331L24.4515 4.55948C23.6828 4.10224 22.7256 4.10224 21.9581 4.55948L5.72616 14.2331C4.9888 14.6728 4.53784 15.4667 4.53784 16.3259Z" fill="#97BF1D"/>
<mask id="mask0_317_247" style="mask-type:luminance" maskUnits="userSpaceOnUse" x="4" y="4" width="38" height="44">
<path d="M4.53296 16.3259V35.8075C4.53296 36.6655 4.98391 37.4606 5.72127 37.9003L21.9532 47.5739C22.722 48.0312 23.6791 48.0312 24.4467 47.5739L40.6786 37.9003C41.4159 37.4606 41.8669 36.6667 41.8669 35.8075V16.3259C41.8669 15.4679 41.4159 14.6728 40.6786 14.2331L24.4467 4.55948C23.6779 4.10224 22.7207 4.10224 21.9532 4.55948L5.72127 14.2331C4.98391 14.6728 4.53296 15.4667 4.53296 16.3259Z" fill="white"/>
</mask>
<g mask="url(#mask0_317_247)">
<rect x="-0.417911" y="1.07693" width="30.038" height="61.5405" transform="matrix(0.403398 0.915025 -0.915023 0.403401 50.3105 16.4592)" fill="#0AA6DD" stroke="white" stroke-width="1.63366"/>
</g>
<path d="M1.77612 14.6804V37.4532C1.77612 38.3111 2.22708 39.1063 2.96444 39.5459L21.9561 50.8639C22.7249 51.3211 23.6821 51.3211 24.4496 50.8639L43.4413 39.5459C44.1786 39.1063 44.6296 38.3124 44.6296 37.4532V14.6804C44.6296 13.8224 44.1786 13.0273 43.4413 12.5876L24.4496 1.26969C23.6808 0.812448 22.7236 0.812448 21.9561 1.26969L2.96444 12.5876C2.22708 13.0273 1.77612 13.8212 1.77612 14.6804Z" stroke="#AFC3C4" stroke-width="1.63299" stroke-miterlimit="10"/>
<mask id="mask1_317_247" style="mask-type:luminance" maskUnits="userSpaceOnUse" x="0" y="0" width="46" height="53">
<path d="M43.8696 11.7912L24.8453 0.453157C23.8316 -0.151052 22.5717 -0.151052 21.558 0.453157L2.5336 11.7912C1.51989 12.3954 0.890564 13.5209 0.890564 14.7293V37.4042C0.890564 38.6126 1.51989 39.7381 2.5336 40.3423L21.558 51.6803C22.0654 51.9818 22.6332 52.1338 23.201 52.1338C23.7688 52.1338 24.3378 51.9831 24.844 51.6803L43.8684 40.3423C44.8821 39.7381 45.5114 38.6126 45.5114 37.4042V14.7293C45.5114 13.5209 44.8821 12.3954 43.8684 11.7912H43.8696Z" fill="white"/>
</mask>
<g mask="url(#mask1_317_247)">
<path d="M23.1403 28.05L22.1906 27.7195L3.39916 -4.65887L42.8816 -4.65887L24.6837 26.6967L23.1403 28.05Z" fill="#E8302B"/>
<path fill-rule="evenodd" clip-rule="evenodd" d="M22.902 28.3237L21.596 28.3237L1.97972 -5.47586L44.2991 -5.47587L25.9443 26.1502L22.902 28.3237ZM41.4621 -3.8422L4.8167 -3.8422L23.1394 27.7285L41.4621 -3.8422Z" fill="white"/>
</g>
<path d="M60.9313 17.0669V10.6355H60.8507L56.5073 17.0669H54.9583V8.1261H56.5507V14.5761H56.6313L60.9684 8.1261H62.5174V17.0669H60.9313ZM68.3788 17.0669V14.2787H65.603V17.0669H64.0664V10.4992H65.603V13.0891H68.3788V10.4992H69.9154V17.0669H68.3788ZM77.8339 13.5724L80.5167 17.0669H78.6517L76.415 14.13H76.3654V17.0669H74.8412V14.13H74.7979L72.5549 17.0669H70.7085L73.3728 13.591L70.7891 10.4992H72.5921L74.7979 13.2378H74.8412V10.4992H76.3654V13.2378H76.415L78.6146 10.4992H80.399L77.8339 13.5724ZM83.9183 11.5587C83.0509 11.5587 82.4251 12.2216 82.3631 13.1386H85.4301C85.3992 12.2093 84.8043 11.5587 83.9183 11.5587ZM85.4363 15.1028H86.88C86.6817 16.342 85.5293 17.197 83.9741 17.197C82.0038 17.197 80.8141 15.9021 80.8141 13.8078C80.8141 11.7322 82.0162 10.3629 83.9121 10.3629C85.7771 10.3629 86.942 11.6578 86.942 13.6529V14.1548H82.3507V14.2477C82.3507 15.301 82.9951 16.0074 84.0051 16.0074C84.7238 16.0074 85.269 15.648 85.4363 15.1028ZM92.3572 17.0669V14.2787H89.5814V17.0669H88.0448V10.4992H89.5814V13.0891H92.3572V10.4992H93.8938V17.0669H92.3572ZM98.1195 11.5587C97.2521 11.5587 96.6263 12.2216 96.5643 13.1386H99.6313C99.6003 12.2093 99.0055 11.5587 98.1195 11.5587ZM99.6375 15.1028H101.081C100.883 16.342 99.7304 17.197 98.1753 17.197C96.2049 17.197 95.0153 15.9021 95.0153 13.8078C95.0153 11.7322 96.2173 10.3629 98.1133 10.3629C99.9783 10.3629 101.143 11.6578 101.143 13.6529V14.1548H96.5519V14.2477C96.5519 15.301 97.1963 16.0074 98.2062 16.0074C98.925 16.0074 99.4702 15.648 99.6375 15.1028ZM105.858 10.3876C107.525 10.3876 108.584 11.6826 108.584 13.783C108.584 15.8773 107.531 17.1722 105.883 17.1722C104.929 17.1722 104.185 16.7137 103.826 15.9764H103.795V19.2293H102.252V10.4992H103.758V11.633H103.789C104.161 10.8709 104.904 10.3876 105.858 10.3876ZM105.387 15.9082C106.385 15.9082 107.005 15.0842 107.005 13.783C107.005 12.4881 106.385 11.6578 105.387 11.6578C104.427 11.6578 103.789 12.5067 103.783 13.783C103.789 15.0718 104.427 15.9082 105.387 15.9082ZM114.018 17.0669V14.2787H111.243V17.0669H109.706V10.4992H111.243V13.0891H114.018V10.4992H115.555V17.0669H114.018ZM119.347 16.0074C120.221 16.0074 120.921 15.425 120.921 14.6319V14.13L119.403 14.2229C118.659 14.2725 118.232 14.6071 118.232 15.1276C118.232 15.6666 118.678 16.0074 119.347 16.0074ZM118.882 17.1722C117.612 17.1722 116.689 16.3729 116.689 15.1895C116.689 14.0247 117.587 13.3245 119.186 13.2254L120.921 13.1263V12.6554C120.921 11.9676 120.456 11.5711 119.694 11.5711C118.963 11.5711 118.498 11.9242 118.399 12.4695H116.968C117.036 11.2427 118.083 10.3629 119.756 10.3629C121.385 10.3629 122.445 11.2241 122.445 12.5438V17.0669H120.958V16.0198H120.927C120.549 16.7323 119.725 17.1722 118.882 17.1722ZM126.392 13.7397H127.532V11.6764H126.392C125.685 11.6764 125.233 12.0853 125.233 12.7359C125.233 13.3183 125.685 13.7397 126.392 13.7397ZM127.532 17.0669V14.8673H126.652L125.122 17.0669H123.399L125.165 14.6257C124.254 14.3469 123.703 13.6715 123.703 12.7421C123.703 11.3604 124.713 10.4992 126.274 10.4992H129.044V17.0669H127.532ZM56.5631 31.0669H54.9583V22.1261H60.5533V23.483H56.5631V31.0669ZM63.3353 25.5587C62.4679 25.5587 61.8421 26.2216 61.7801 27.1386H64.8471C64.8161 26.2093 64.2213 25.5587 63.3353 25.5587ZM64.8533 29.1028H66.297C66.0987 30.342 64.9463 31.197 63.3911 31.197C61.4207 31.197 60.2311 29.9021 60.2311 27.8078C60.2311 25.7322 61.4331 24.3629 63.3291 24.3629C65.1941 24.3629 66.3589 25.6578 66.3589 27.6529V28.1548H61.7677V28.2477C61.7677 29.301 62.4121 30.0074 63.422 30.0074C64.1408 30.0074 64.686 29.648 64.8533 29.1028ZM70.3739 31.197C68.447 31.197 67.1954 29.9144 67.1954 27.783C67.1954 25.664 68.4594 24.3629 70.3739 24.3629C72.2885 24.3629 73.5525 25.6578 73.5525 27.783C73.5525 29.9144 72.3009 31.197 70.3739 31.197ZM70.3739 29.9764C71.3529 29.9764 71.9849 29.1833 71.9849 27.783C71.9849 26.3889 71.3529 25.5897 70.3739 25.5897C69.4012 25.5897 68.763 26.3889 68.763 27.783C68.763 29.1833 69.395 29.9764 70.3739 29.9764ZM76.5947 28.0061C76.4708 29.9082 75.9751 31.1351 74.4323 31.1351C74.1906 31.1351 74.011 31.0917 73.9304 31.0607V29.7348C73.9924 29.7533 74.1225 29.7843 74.296 29.7843C74.9342 29.7843 75.1448 29.016 75.2068 27.9255L75.4175 24.4992H80.1574V31.0669H78.6208V25.6888H76.7496L76.5947 28.0061ZM84.4512 31.197C82.5242 31.197 81.2726 29.9144 81.2726 27.783C81.2726 25.664 82.5366 24.3629 84.4512 24.3629C86.3657 24.3629 87.6297 25.6578 87.6297 27.783C87.6297 29.9144 86.3781 31.197 84.4512 31.197ZM84.4512 29.9764C85.4301 29.9764 86.0621 29.1833 86.0621 27.783C86.0621 26.3889 85.4301 25.5897 84.4512 25.5897C83.4784 25.5897 82.8402 26.3889 82.8402 27.783C82.8402 29.1833 83.4722 29.9764 84.4512 29.9764ZM93.1937 25.6888H90.2754V31.0669H88.7388V24.4992H93.1937V25.6888ZM95.7898 31.0669H94.278V24.4992H95.7898V28.8859H95.8394L98.6957 24.4992H100.208V31.0669H98.6957V26.6492H98.6462L95.7898 31.0669ZM104.185 27.7397H105.325V25.6764H104.185C103.479 25.6764 103.027 26.0853 103.027 26.7359C103.027 27.3183 103.479 27.7397 104.185 27.7397ZM105.325 31.0669V28.8673H104.446L102.915 31.0669H101.193L102.959 28.6257C102.048 28.3469 101.496 27.6715 101.496 26.7421C101.496 25.3604 102.506 24.4992 104.068 24.4992H106.837V31.0669H105.325ZM112.271 31.0669H110.759V24.4992H112.271V28.8859H112.321L115.177 24.4992H116.689V31.0669H115.177V26.6492H115.127L112.271 31.0669ZM56.5631 45.0669H54.9583V36.1261H60.5533V37.483H56.5631V45.0669ZM63.3353 39.5587C62.4679 39.5587 61.8421 40.2216 61.7801 41.1386H64.8471C64.8161 40.2093 64.2213 39.5587 63.3353 39.5587ZM64.8533 43.1028H66.297C66.0987 44.342 64.9463 45.197 63.3911 45.197C61.4207 45.197 60.2311 43.9021 60.2311 41.8078C60.2311 39.7322 61.4331 38.3629 63.3291 38.3629C65.1941 38.3629 66.3589 39.6578 66.3589 41.6529V42.1548H61.7677V42.2477C61.7677 43.301 62.4121 44.0074 63.422 44.0074C64.1408 44.0074 64.686 43.648 64.8533 43.1028ZM70.3739 45.197C68.447 45.197 67.1954 43.9144 67.1954 41.783C67.1954 39.664 68.4594 38.3629 70.3739 38.3629C72.2885 38.3629 73.5525 39.6578 73.5525 41.783C73.5525 43.9144 72.3009 45.197 70.3739 45.197ZM70.3739 43.9764C71.3529 43.9764 71.9849 43.1833 71.9849 41.783C71.9849 40.3889 71.3529 39.5897 70.3739 39.5897C69.4012 39.5897 68.763 40.3889 68.763 41.783C68.763 43.1833 69.395 43.9764 70.3739 43.9764ZM79.5935 38.4992V39.6888H77.5737V45.0669H76.0432V39.6888H74.0234V38.4992H79.5935ZM83.2616 39.5587C82.3941 39.5587 81.7683 40.2216 81.7064 41.1386H84.7734C84.7424 40.2093 84.1476 39.5587 83.2616 39.5587ZM84.7796 43.1028H86.2232C86.025 44.342 84.8725 45.197 83.3173 45.197C81.347 45.197 80.1574 43.9021 80.1574 41.8078C80.1574 39.7322 81.3594 38.3629 83.2554 38.3629C85.1203 38.3629 86.2852 39.6578 86.2852 41.6529V42.1548H81.694V42.2477C81.694 43.301 82.3384 44.0074 83.3483 44.0074C84.067 44.0074 84.6123 43.648 84.7796 43.1028ZM89.8355 42.7124H89.8045L88.4414 45.0669H86.7995L88.9185 41.7892L86.818 38.4992H88.5529L89.8789 40.8041H89.9098L91.2172 38.4992H92.9087L90.7959 41.7459L92.8839 45.0669H91.1986L89.8355 42.7124ZM98.1195 45.0669V42.2787H95.3437V45.0669H93.8071V38.4992H95.3437V41.0891H98.1195V38.4992H99.6561V45.0669H98.1195ZM102.556 45.0669H101.044V38.4992H102.556V42.8859H102.605L105.462 38.4992H106.974V45.0669H105.462V40.6492H105.412L102.556 45.0669ZM111.36 41.5662L114.272 45.0669H112.383L109.941 42.13H109.892V45.0669H108.355V38.4992H109.892V41.2378H109.941L112.345 38.4992H114.142L111.36 41.5662ZM117.339 44.0074C118.213 44.0074 118.913 43.425 118.913 42.6319V42.13L117.395 42.2229C116.652 42.2725 116.224 42.6071 116.224 43.1276C116.224 43.6666 116.67 44.0074 117.339 44.0074ZM116.875 45.1722C115.605 45.1722 114.681 44.3729 114.681 43.1895C114.681 42.0247 115.58 41.3245 117.178 41.2254L118.913 41.1263V40.6554C118.913 39.9676 118.448 39.5711 117.686 39.5711C116.955 39.5711 116.491 39.9242 116.391 40.4695H114.96C115.028 39.2427 116.075 38.3629 117.748 38.3629C119.378 38.3629 120.437 39.2241 120.437 40.5438V45.0669H118.95V44.0198H118.919C118.541 44.7323 117.717 45.1722 116.875 45.1722Z" fill="#5D7784"/>
</svg>
