<svg width="45" height="53" viewBox="0 0 45 53" fill="none" xmlns="http://www.w3.org/2000/svg">
<path d="M3.64728 16.3259V35.8075C3.64728 36.6655 4.09823 37.4606 4.83559 37.9003L21.0675 47.5739C21.8363 48.0312 22.7935 48.0312 23.561 47.5739L39.7929 37.9003C40.5303 37.4606 40.9812 36.6667 40.9812 35.8075V16.3259C40.9812 15.4679 40.5303 14.6728 39.7929 14.2331L23.561 4.55948C22.7922 4.10224 21.835 4.10224 21.0675 4.55948L4.83559 14.2331C4.09823 14.6728 3.64728 15.4667 3.64728 16.3259Z" fill="#97BF1D"/>
<mask id="mask0_366_2523" style="mask-type:luminance" maskUnits="userSpaceOnUse" x="3" y="4" width="38" height="44">
<path d="M3.6424 16.3259V35.8075C3.6424 36.6655 4.09335 37.4606 4.83071 37.9003L21.0626 47.5739C21.8314 48.0312 22.7886 48.0312 23.5561 47.5739L39.788 37.9003C40.5254 37.4606 40.9763 36.6667 40.9763 35.8075V16.3259C40.9763 15.4679 40.5254 14.6728 39.788 14.2331L23.5561 4.55948C22.7873 4.10224 21.8301 4.10224 21.0626 4.55948L4.83071 14.2331C4.09335 14.6728 3.6424 15.4667 3.6424 16.3259Z" fill="white"/>
</mask>
<g mask="url(#mask0_366_2523)">
<rect x="-0.417911" y="1.07693" width="30.038" height="61.5405" transform="matrix(0.403398 0.915025 -0.915023 0.403401 49.4199 16.4595)" fill="#0AA6DD" stroke="white" stroke-width="1.63366"/>
</g>
<path d="M0.885559 14.6804V37.4532C0.885559 38.3111 1.33652 39.1063 2.07387 39.5459L21.0656 50.8639C21.8343 51.3211 22.7915 51.3211 23.559 50.8639L42.5507 39.5459C43.2881 39.1063 43.739 38.3124 43.739 37.4532V14.6804C43.739 13.8224 43.2881 13.0273 42.5507 12.5876L23.559 1.26969C22.7903 0.812448 21.8331 0.812448 21.0656 1.26969L2.07387 12.5876C1.33652 13.0273 0.885559 13.8212 0.885559 14.6804Z" stroke="#AFC3C4" stroke-width="1.63299" stroke-miterlimit="10"/>
<mask id="mask1_366_2523" style="mask-type:luminance" maskUnits="userSpaceOnUse" x="0" y="0" width="45" height="53">
<path d="M42.9791 11.7912L23.9547 0.453157C22.941 -0.151052 21.6811 -0.151052 20.6674 0.453157L1.64304 11.7912C0.629329 12.3954 0 13.5209 0 14.7293V37.4042C0 38.6126 0.629329 39.7381 1.64304 40.3423L20.6674 51.6803C21.1749 51.9818 21.7426 52.1338 22.3104 52.1338C22.8782 52.1338 23.4472 51.9831 23.9535 51.6803L42.9778 40.3423C43.9915 39.7381 44.6209 38.6126 44.6209 37.4042V14.7293C44.6209 13.5209 43.9915 12.3954 42.9778 11.7912H42.9791Z" fill="white"/>
</mask>
<g mask="url(#mask1_366_2523)">
<path d="M22.2498 28.05L21.3 27.7195L2.5086 -4.65887L41.991 -4.65887L23.7932 26.6967L22.2498 28.05Z" fill="#E8302B"/>
<path fill-rule="evenodd" clip-rule="evenodd" d="M22.0114 28.3237L20.7054 28.3237L1.08915 -5.47586L43.4086 -5.47587L25.0537 26.1502L22.0114 28.3237ZM40.5716 -3.8422L3.92614 -3.8422L22.2489 27.7285L40.5716 -3.8422Z" fill="white"/>
</g>
</svg>
