<svg width="61" height="60" viewBox="0 0 61 60" fill="none" xmlns="http://www.w3.org/2000/svg">
<path fill-rule="evenodd" clip-rule="evenodd" d="M21.892 7.69905C27.3542 4.5253 34.0681 4.58077 39.4789 7.84435C44.8366 11.1744 48.0929 17.1176 48.0626 23.5107C47.9379 29.862 44.4462 35.8321 40.0817 40.4473C37.5626 43.1231 34.7445 45.4892 31.6851 47.4972C31.37 47.6794 31.0249 47.8014 30.6667 47.8571C30.322 47.8424 29.9863 47.7406 29.6899 47.5607C25.0191 44.5435 20.9213 40.6922 17.5938 36.192C14.8095 32.4355 13.2276 27.8971 13.063 23.1932C13.0594 16.7877 16.4299 10.8728 21.892 7.69905ZM25.0479 25.8441C25.9667 28.1092 28.1354 29.5867 30.5415 29.5867C32.1177 29.5981 33.6329 28.9667 34.7495 27.8333C35.866 26.6999 36.4912 25.1587 36.4856 23.5531C36.494 21.1022 35.0511 18.8879 32.8306 17.9441C30.6101 17.0002 28.0501 17.513 26.3457 19.243C24.6414 20.973 24.1291 23.5789 25.0479 25.8441Z" fill="#707274"/>
<ellipse opacity="0.4" cx="30.5625" cy="52.8571" rx="12.5" ry="2.5" fill="#707274"/>
<circle cx="30.5295" cy="23.2242" r="15.3147" fill="white"/>
<path d="M21.1841 18.525V28.3486C21.1841 28.7812 21.4115 29.1822 21.7833 29.4039L29.9682 34.2818C30.3559 34.5123 30.8385 34.5123 31.2255 34.2818L39.4105 29.4039C39.7823 29.1822 40.0097 28.7818 40.0097 28.3486V18.525C40.0097 18.0924 39.7823 17.6914 39.4105 17.4697L31.2255 12.5918C30.8379 12.3612 30.3552 12.3612 29.9682 12.5918L21.7833 17.4697C21.4115 17.6914 21.1841 18.0917 21.1841 18.525Z" fill="#97BF1D"/>
<mask id="mask0_367_2739" style="mask-type:luminance" maskUnits="userSpaceOnUse" x="21" y="12" width="20" height="23">
<path d="M21.1812 18.5251V28.3487C21.1812 28.7813 21.4085 29.1822 21.7804 29.4039L29.9653 34.2818C30.3529 34.5124 30.8356 34.5124 31.2226 34.2818L39.4075 29.4039C39.7793 29.1822 40.0067 28.7819 40.0067 28.3487V18.5251C40.0067 18.0924 39.7793 17.6915 39.4075 17.4698L31.2226 12.5919C30.835 12.3613 30.3523 12.3613 29.9653 12.5919L21.7804 17.4698C21.4085 17.6915 21.1812 18.0918 21.1812 18.5251Z" fill="white"/>
</mask>
<g mask="url(#mask0_367_2739)">
<rect x="-0.210731" y="0.54304" width="15.1466" height="31.0317" transform="matrix(0.403398 0.915025 -0.915023 0.403401 44.2657 18.5924)" fill="#0AA6DD" stroke="white" stroke-width="0.82377"/>
</g>
<path d="M19.791 17.6952V29.1783C19.791 29.611 20.0184 30.0119 20.3902 30.2336L29.9668 35.9407C30.3544 36.1712 30.8371 36.1712 31.2241 35.9407L40.8006 30.2336C41.1724 30.0119 41.3998 29.6116 41.3998 29.1783V17.6952C41.3998 17.2626 41.1724 16.8616 40.8006 16.6399L31.2241 10.9329C30.8364 10.7023 30.3538 10.7023 29.9668 10.9329L20.3902 16.6399C20.0184 16.8616 19.791 17.2619 19.791 17.6952Z" stroke="#AFC3C4" stroke-width="0.823435" stroke-miterlimit="10"/>
<mask id="mask1_367_2739" style="mask-type:luminance" maskUnits="userSpaceOnUse" x="19" y="10" width="23" height="27">
<path d="M41.0169 16.2384L31.4239 10.5212C30.9127 10.2165 30.2774 10.2165 29.7662 10.5212L20.1732 16.2384C19.6621 16.543 19.3447 17.1106 19.3447 17.7199V29.1537C19.3447 29.763 19.6621 30.3305 20.1732 30.6352L29.7662 36.3524C30.0221 36.5044 30.3084 36.5811 30.5947 36.5811C30.881 36.5811 31.168 36.5051 31.4232 36.3524L41.0162 30.6352C41.5274 30.3305 41.8447 29.763 41.8447 29.1537V17.7199C41.8447 17.1106 41.5274 16.543 41.0162 16.2384H41.0169Z" fill="white"/>
</mask>
<g mask="url(#mask1_367_2739)">
<path d="M30.5645 24.4369L30.0856 24.2702L20.6101 7.94347L40.519 7.94347L31.3428 23.7545L30.5645 24.4369Z" fill="#E8302B"/>
<path fill-rule="evenodd" clip-rule="evenodd" d="M30.4444 24.5749L29.7859 24.5749L19.8944 7.53149L41.2339 7.53149L31.9785 23.4789L30.4444 24.5749ZM39.8033 8.35526L21.3249 8.35526L30.5641 24.2748L39.8033 8.35526Z" fill="white"/>
</g>
</svg>
