<svg width="50" height="50" viewBox="0 0 50 50" fill="none" xmlns="http://www.w3.org/2000/svg">
<rect x="0.571429" y="0.571429" width="48.8571" height="48.8571" stroke="#0AA6DD" stroke-width="1.14286"/>
<path d="M25.0004 25.8232C27.9892 25.8232 30.4121 23.4003 30.4121 20.4116C30.4121 17.4228 27.9892 15 25.0004 15C22.0117 15 19.5889 17.4229 19.5889 20.4116C19.5925 23.3988 22.0132 25.8195 25.0004 25.8232ZM25.0004 17.4977C26.6098 17.4977 27.9144 18.8023 27.9144 20.4116C27.9144 22.021 26.6098 23.3256 25.0004 23.3256C23.3911 23.3256 22.0865 22.021 22.0865 20.4116C22.0865 18.8023 23.3911 17.4977 25.0004 17.4977Z" fill="#0AA6DD"/>
<path d="M30.301 28.3875C30.8891 28.0002 31.2435 27.3434 31.2443 26.6392C31.2525 26.0547 30.9227 25.518 30.3976 25.2613C29.8581 24.9918 29.2123 25.0525 28.7325 25.4178C26.5086 27.0391 23.4924 27.0391 21.2686 25.4178C20.7881 25.0544 20.1434 24.9938 19.6035 25.2613C19.0786 25.518 18.7487 26.0541 18.756 26.6383C18.7572 27.3424 19.1115 27.999 19.6993 28.3867C20.4534 28.8882 21.2747 29.2806 22.1387 29.5523C22.2852 29.5978 22.4364 29.64 22.5924 29.6788L20.0765 32.139C19.4165 32.7794 19.4005 33.8335 20.0409 34.4936C20.6812 35.1536 21.7354 35.1696 22.3954 34.5292C22.4092 34.5158 22.4227 34.5023 22.4359 34.4885L25.0002 31.8343L27.5695 34.4935C28.2093 35.154 29.2635 35.1708 29.924 34.5309C30.5845 33.8911 30.6013 32.8369 29.9615 32.1764C29.9481 32.1626 29.9345 32.149 29.9206 32.1357L27.4088 29.678C27.5647 29.638 27.7165 29.5955 27.8642 29.5506C28.7272 29.28 29.5477 28.8884 30.301 28.3875Z" fill="#0AA6DD"/>
</svg>
