<svg width="50" height="50" viewBox="0 0 50 50" fill="none" xmlns="http://www.w3.org/2000/svg">
<rect x="0.571429" y="0.571429" width="48.8571" height="48.8571" stroke="#0AA6DD" stroke-width="1.14286"/>
<path d="M34.9861 18.8059C34.2515 19.1317 33.4612 19.352 32.6325 19.4504C33.4786 18.9434 34.128 18.1413 34.4345 17.1839C33.6427 17.6536 32.7654 17.9943 31.8325 18.1779C31.085 17.3819 30.02 16.8844 28.8408 16.8844C26.5782 16.8844 24.7432 18.7194 24.7432 20.982C24.7432 21.3032 24.7796 21.6158 24.8498 21.9159C21.4444 21.745 18.4249 20.1138 16.4038 17.634C16.0511 18.2391 15.8488 18.9434 15.8488 19.6943C15.8488 21.1155 16.5728 22.3703 17.6716 23.1049C17.0003 23.0838 16.368 22.8995 15.8158 22.5918C15.8155 22.6092 15.8155 22.6266 15.8155 22.6438C15.8155 24.6291 17.2286 26.2851 19.1027 26.6613C18.7592 26.7554 18.3965 26.8052 18.0234 26.8052C17.7587 26.8052 17.5024 26.7799 17.2524 26.7322C17.7737 28.3597 19.2867 29.5445 21.0801 29.5778C19.6775 30.677 17.9109 31.3318 15.9906 31.3318C15.6606 31.3318 15.3336 31.3126 15.0137 31.2744C16.8261 32.4374 18.9805 33.1155 21.2944 33.1155C28.8313 33.1155 32.953 26.8718 32.953 21.4566C32.953 21.279 32.9491 21.1021 32.9411 20.9267C33.7424 20.3491 34.437 19.6276 34.9861 18.8059Z" fill="#0AA6DD"/>
</svg>
