<svg width="50" height="50" viewBox="0 0 50 50" fill="none" xmlns="http://www.w3.org/2000/svg">
<rect x="0.571429" y="0.571429" width="48.8571" height="48.8571" stroke="#0AA6DD" stroke-width="1.14286"/>
<path fill-rule="evenodd" clip-rule="evenodd" d="M24.7583 31.367H26.1038C26.1038 31.367 26.5103 31.3224 26.7178 31.0987C26.9088 30.8934 26.9026 30.5077 26.9026 30.5077C26.9026 30.5077 26.8764 28.7023 27.7143 28.4364C28.5403 28.1745 29.601 30.1813 30.7252 30.9529C31.5754 31.5369 32.2214 31.4089 32.2214 31.4089L35.2275 31.367C35.2275 31.367 36.8 31.2701 36.0544 30.0337C35.9933 29.9326 35.6201 29.1191 33.8193 27.4475C31.9344 25.6981 32.1869 25.981 34.4574 22.9548C35.8402 21.1118 36.393 19.9866 36.2203 19.5047C36.0556 19.0457 35.0386 19.167 35.0386 19.167L31.6539 19.1881C31.6539 19.1881 31.403 19.1539 31.2169 19.2651C31.0351 19.3742 30.9181 19.6285 30.9181 19.6285C30.9181 19.6285 30.3824 21.0547 29.6679 22.2675C28.1607 24.8268 27.5581 24.9619 27.3118 24.803C26.7388 24.4326 26.8819 23.3151 26.8819 22.5212C26.8819 20.041 27.258 19.0069 26.1494 18.7392C25.7814 18.6503 25.5107 18.5916 24.5698 18.5821C23.3621 18.5696 22.3399 18.5858 21.7611 18.8694C21.3761 19.0579 21.0791 19.4781 21.26 19.5023C21.4837 19.5322 21.9903 19.6389 22.2589 20.0047C22.6058 20.4765 22.5936 21.5363 22.5936 21.5363C22.5936 21.5363 22.7928 24.4558 22.1281 24.8186C21.6719 25.0673 21.0461 24.5594 19.7024 22.2376C19.0139 21.0482 18.4941 19.7336 18.4941 19.7336C18.4941 19.7336 18.3939 19.4879 18.2151 19.3565C17.9981 19.1973 17.695 19.1466 17.695 19.1466L14.4787 19.1676C14.4787 19.1676 13.9958 19.1811 13.8186 19.391C13.6609 19.5777 13.8061 19.964 13.8061 19.964C13.8061 19.964 16.3241 25.8551 19.1752 28.8239C21.7895 31.5458 24.7583 31.367 24.7583 31.367Z" fill="#0AA6DD"/>
</svg>
