<svg width="400" height="400" viewBox="0 0 400 400" fill="none" xmlns="http://www.w3.org/2000/svg">
<rect width="400" height="400" fill="#5D7784"/>
<path d="M144.824 189.656V198.104H153.976V189.656H157.24V211H153.976V201.176H144.824V211H141.56V189.656H144.824ZM171.237 206.456L173.861 207.928C173.263 208.995 172.506 209.816 171.589 210.392C170.543 211.075 169.221 211.416 167.621 211.416C165.743 211.416 164.229 210.84 163.077 209.688C161.754 208.365 161.093 206.648 161.093 204.536C161.093 202.317 161.807 200.472 163.237 199C164.453 197.784 165.957 197.176 167.749 197.176C169.498 197.176 170.938 197.763 172.069 198.936C173.327 200.237 173.957 202.136 173.957 204.632V205.016H164.293C164.378 206.147 164.762 207.053 165.445 207.736C166.021 208.312 166.821 208.6 167.845 208.6C168.677 208.6 169.391 208.376 169.989 207.928C170.479 207.544 170.895 207.053 171.237 206.456ZM164.516 202.456H170.757C170.629 201.709 170.309 201.101 169.797 200.632C169.242 200.12 168.538 199.864 167.685 199.864C166.789 199.864 166.053 200.152 165.477 200.728C165.007 201.155 164.687 201.731 164.516 202.456ZM186.514 200.408H182.578V211H179.442V200.408H175.506V197.528H186.514V200.408ZM203.402 218.328V211.224C201.098 211.245 199.253 210.659 197.866 209.464C196.351 208.184 195.594 206.445 195.594 204.248C195.594 202.072 196.341 200.344 197.834 199.064C199.199 197.891 201.055 197.304 203.402 197.304V189.656H206.538V197.304C208.885 197.304 210.741 197.891 212.106 199.064C213.599 200.344 214.346 202.072 214.346 204.248C214.346 206.445 213.589 208.184 212.074 209.464C210.687 210.659 208.842 211.245 206.538 211.224V218.328H203.402ZM203.402 208.408V200.12C202.165 200.12 201.183 200.355 200.458 200.824C199.349 201.485 198.794 202.627 198.794 204.248C198.794 205.763 199.317 206.883 200.362 207.608C201.173 208.184 202.186 208.451 203.402 208.408ZM206.538 200.12V208.408C207.754 208.451 208.767 208.184 209.578 207.608C210.623 206.883 211.146 205.763 211.146 204.248C211.146 202.627 210.591 201.485 209.482 200.824C208.757 200.355 207.775 200.12 206.538 200.12ZM219.016 199.192C220.402 197.848 222.12 197.176 224.168 197.176C226.216 197.176 227.922 197.848 229.288 199.192C230.674 200.515 231.368 202.211 231.368 204.28C231.368 206.328 230.674 208.035 229.288 209.4C227.922 210.744 226.216 211.416 224.168 211.416C222.12 211.416 220.402 210.744 219.016 209.4C217.65 208.035 216.968 206.328 216.968 204.28C216.968 202.211 217.65 200.515 219.016 199.192ZM221.256 207.448C221.981 208.216 222.952 208.6 224.168 208.6C225.384 208.6 226.354 208.216 227.08 207.448C227.805 206.659 228.168 205.613 228.168 204.312C228.168 202.883 227.773 201.805 226.984 201.08C226.216 200.355 225.277 199.992 224.168 199.992C223.058 199.992 222.109 200.355 221.32 201.08C220.552 201.805 220.168 202.883 220.168 204.312C220.168 205.613 220.53 206.659 221.256 207.448ZM243.92 200.408H239.984V211H236.848V200.408H232.912V197.528H243.92V200.408ZM247.172 199.192C248.558 197.848 250.276 197.176 252.324 197.176C254.372 197.176 256.078 197.848 257.444 199.192C258.83 200.515 259.524 202.211 259.524 204.28C259.524 206.328 258.83 208.035 257.444 209.4C256.078 210.744 254.372 211.416 252.324 211.416C250.276 211.416 248.558 210.744 247.172 209.4C245.806 208.035 245.124 206.328 245.124 204.28C245.124 202.211 245.806 200.515 247.172 199.192ZM249.412 207.448C250.137 208.216 251.108 208.6 252.324 208.6C253.54 208.6 254.51 208.216 255.236 207.448C255.961 206.659 256.324 205.613 256.324 204.312C256.324 202.883 255.929 201.805 255.14 201.08C254.372 200.355 253.433 199.992 252.324 199.992C251.214 199.992 250.265 200.355 249.476 201.08C248.708 201.805 248.324 202.883 248.324 204.312C248.324 205.613 248.686 206.659 249.412 207.448Z" fill="white"/>
</svg>
