<svg width="28" height="28" viewBox="0 0 28 28" fill="none" xmlns="http://www.w3.org/2000/svg">
<path fill-rule="evenodd" clip-rule="evenodd" d="M9.96935 3.42621C12.5183 1.94513 15.6515 1.97102 18.1766 3.49402C20.6768 5.04805 22.1964 7.82152 22.1823 10.805C22.1241 13.7689 20.4946 16.555 18.4578 18.7088C17.2823 19.9574 15.9672 21.0616 14.5394 21.9987C14.3924 22.0837 14.2313 22.1406 14.0642 22.1666C13.9033 22.1598 13.7467 22.1123 13.6083 22.0283C11.4286 20.6203 9.51635 18.823 7.96351 16.7229C6.66414 14.9699 5.92593 12.852 5.84912 10.6568C5.84744 7.6676 7.42035 4.90729 9.96935 3.42621ZM11.4423 11.8939C11.8711 12.951 12.8832 13.6405 14.006 13.6405C14.7416 13.6458 15.4487 13.3511 15.9697 12.8222C16.4908 12.2933 16.7825 11.5741 16.7799 10.8248C16.7838 9.68102 16.1105 8.64768 15.0743 8.20722C14.038 7.76675 12.8433 8.00605 12.048 8.81339C11.2526 9.62072 11.0135 10.8368 11.4423 11.8939Z" fill="#707274"/>
<ellipse opacity="0.4" cx="14.016" cy="24.5" rx="5.83333" ry="1.16667" fill="#707274"/>
<circle cx="14" cy="10.4999" r="4" fill="white"/>
<circle cx="14" cy="10.4999" r="4" fill="white"/>
</svg>
